<?xml version="1.0" standalone="no"?>
<!DOCTYPE svg PUBLIC "-//W3C//DTD SVG 1.0//EN" "http://www.w3.org/TR/2001/REC-SVG-20010904/DTD/svg10.dtd">
<svg xmlns="http://www.w3.org/2000/svg" xmlns:xlink="http://www.w3.org/1999/xlink" id="body_1" width="25" height="25">

<g transform="matrix(1 0 0 1 0 0)">
	<g>
        <path transform="matrix(1.041667 0 0 1.041667 0 0)"  d="M16.785 6.8925L16.7775 6.89625L9.12 14.39625L9.11625 14.4C 8.89125 14.63625 8.7675 14.95125 8.77125 15.2775C 8.77875 15.6 8.91375 15.91125 9.14625 16.14C 9.37875 16.36875 9.69375 16.5 10.02375 16.50375C 10.35375 16.51125 10.6725 16.39125 10.9125 16.17L10.9125 16.17L10.91625 16.16625L18.5775 8.66625C 19.2225 8.03625 19.58625 7.1775 19.58625 6.28125C 19.58625 5.38875 19.2225 4.53 18.5775 3.89625C 17.9325 3.26625 17.055 2.91 16.14375 2.91C 15.2325 2.91 14.35875 3.26625 13.71375 3.89625L13.71375 3.89625L6.05625 11.39625C 5.0025 12.4275 4.41 13.82625 4.41 15.28125C 4.41 16.74 5.0025 18.135 6.05625 19.16625C 7.10625 20.1975 8.53125 20.775 10.01625 20.775C 11.505 20.775 12.93 20.1975 13.98 19.16625L13.98 19.16625L19.5975 13.665L19.605 13.66125C 19.68375 13.5675 19.785 13.4925 19.89375 13.44C 20.00625 13.3875 20.12625 13.3575 20.25 13.35375C 20.37375 13.35 20.4975 13.36875 20.61375 13.41375C 20.73 13.45875 20.835 13.52625 20.92125 13.60875C 21.0075 13.695 21.075 13.79625 21.12 13.90875C 21.165 14.02125 21.1875 14.14125 21.18 14.26125C 21.17625 14.38125 21.14625 14.4975 21.09375 14.60625C 21.04125 14.715 20.9625 14.8125 20.86875 14.89125L20.86875 14.89125L20.86125 14.89875L15.2475 20.39625C 13.86 21.75375 11.9775 22.51875 10.01625 22.51875C 8.055 22.51875 6.17625 21.75375 4.78875 20.39625C 3.405 19.03875 2.625 17.20125 2.625 15.28125C 2.625 13.365 3.405 11.52375 4.78875 10.16625L4.78875 10.16625L12.45 2.66625C 12.93375 2.1825 13.51125 1.79625 14.145 1.53C 14.7825 1.2675 15.46875 1.12875 16.15875 1.125C 16.84875 1.12125 17.535 1.2525 18.17625 1.5075C 18.81375 1.76625 19.395 2.145 19.88625 2.625C 20.37375 3.10125 20.76 3.67125 21.0225 4.2975C 21.285 4.92375 21.42 5.59125 21.41625 6.27C 21.4125 6.945 21.27 7.6125 21 8.235C 20.73 8.86125 20.33625 9.42375 19.84125 9.89625L19.84125 9.89625L12.18375 17.39625C 11.59875 17.94375 10.82625 18.2475 10.01625 18.2475C 9.21 18.2475 8.43375 17.94375 7.8525 17.39625C 7.5675 17.11875 7.3425 16.78875 7.18875 16.42875C 7.035 16.065 6.95625 15.675 6.95625 15.28125C 6.95625 14.8875 7.035 14.50125 7.18875 14.1375C 7.3425 13.77375 7.5675 13.44375 7.8525 13.16625L7.8525 13.16625L15.51375 5.66625L15.5175 5.65875C 15.6 5.56875 15.6975 5.49375 15.81 5.44125C 15.9225 5.38875 16.0425 5.35875 16.16625 5.355C 16.29 5.3475 16.41375 5.37 16.53 5.415C 16.6425 5.45625 16.7475 5.52375 16.8375 5.61C 16.92375 5.69625 16.99125 5.7975 17.03625 5.91C 17.08125 6.0225 17.1 6.1425 17.09625 6.2625C 17.0925 6.3825 17.0625 6.49875 17.01 6.6075C 16.95375 6.71625 16.87875 6.81375 16.785 6.8925z" stroke="#919191" stroke-width="0.25" fill="#919191" fill-rule="nonzero" />
	</g>
</g>
</svg>