<svg width="24" height="28" viewBox="0 0 24 28" fill="none" xmlns="http://www.w3.org/2000/svg">
<path fill-rule="evenodd" clip-rule="evenodd" d="M17.8915 1.47067C17.8303 1.01663 17.4441 0.666668 16.9768 0.666668C16.467 0.666668 16.0537 1.08315 16.0537 1.5969V2.62535H7.95753V1.5969L7.9491 1.47067C7.88798 1.01663 7.50177 0.666668 7.03445 0.666668C6.52465 0.666668 6.11138 1.08315 6.11138 1.5969V2.64845C2.32874 2.90897 0 5.35989 0 9.31438V20.5387C0 24.783 2.61112 27.3333 6.79501 27.3333H17.2049C21.3937 27.3333 23.9999 24.8257 23.9999 20.6326V9.31438C24.012 5.35848 21.6907 2.90824 17.8999 2.64834V1.5969L17.8915 1.47067ZM16.0537 4.48579V5.67849L16.0622 5.80471C16.1233 6.25876 16.5095 6.60872 16.9768 6.60872C17.4866 6.60872 17.8999 6.19224 17.8999 5.67849V4.51329C20.658 4.74276 22.1626 6.40362 22.1538 9.31149V9.85025H1.84614V9.31435C1.84614 6.4083 3.359 4.74393 6.11138 4.51347V5.67849L6.11981 5.80471C6.18093 6.25876 6.56714 6.60872 7.03445 6.60872C7.54425 6.60872 7.95753 6.19224 7.95753 5.67849V4.48579H16.0537ZM1.84614 11.7107V20.5387C1.84614 23.7422 3.61801 25.4728 6.795 25.4728H17.2048C20.3927 25.4728 22.1537 23.7784 22.1537 20.6325L22.1538 11.7107H1.84614ZM18.4016 15.6245C18.4016 15.1107 17.9883 14.6942 17.4785 14.6942L17.3418 14.7027C16.8913 14.7643 16.544 15.1535 16.544 15.6245C16.544 16.1382 16.9573 16.5547 17.4785 16.5547L17.6038 16.5462C18.0543 16.4846 18.4016 16.0954 18.4016 15.6245ZM12.017 14.6942C12.5268 14.6942 12.9401 15.1107 12.9401 15.6245C12.9401 16.0954 12.5928 16.4846 12.1423 16.5462L12.017 16.5547C11.4958 16.5547 11.0825 16.1382 11.0825 15.6245C11.0825 15.1535 11.4298 14.7643 11.8804 14.7027L12.017 14.6942ZM7.46724 15.6245C7.46724 15.1107 7.05397 14.6942 6.54417 14.6942L6.40751 14.7027C5.95696 14.7643 5.60969 15.1535 5.60969 15.6245C5.60969 16.1382 6.02297 16.5547 6.53277 16.5547L6.66942 16.5462C7.11998 16.4846 7.46724 16.0954 7.46724 15.6245ZM17.4785 19.5147C17.9883 19.5147 18.4016 19.9312 18.4016 20.4449C18.4016 20.9159 18.0543 21.3051 17.6038 21.3667L17.4785 21.3751C16.9573 21.3751 16.544 20.9587 16.544 20.4449C16.544 19.974 16.8913 19.5848 17.3418 19.5232L17.4785 19.5147ZM12.9401 20.4449C12.9401 19.9312 12.5268 19.5147 12.017 19.5147L11.8804 19.5232C11.4298 19.5848 11.0825 19.974 11.0825 20.4449C11.0825 20.9587 11.4958 21.3751 12.017 21.3751L12.1423 21.3667C12.5928 21.3051 12.9401 20.9159 12.9401 20.4449ZM6.54417 19.5147C7.05397 19.5147 7.46724 19.9312 7.46724 20.4449C7.46724 20.9159 7.11998 21.3051 6.66942 21.3667L6.53277 21.3751C6.02297 21.3751 5.60969 20.9587 5.60969 20.4449C5.60969 19.974 5.95696 19.5848 6.40751 19.5232L6.54417 19.5147Z" fill="#2AB1FC"/>
</svg>
