<svg width="25" height="24" viewBox="0 0 25 24" fill="none" xmlns="http://www.w3.org/2000/svg">
<path fill-rule="evenodd" clip-rule="evenodd" d="M16.9186 2.603C16.8728 2.26247 16.5831 2 16.2326 2C15.8503 2 15.5403 2.31236 15.5403 2.69767V3.46902H9.46814V2.69767L9.46182 2.603C9.41598 2.26247 9.12632 2 8.77583 2C8.39348 2 8.08353 2.31236 8.08353 2.69767V3.48634C5.24655 3.68173 3.5 5.51992 3.5 8.48579V16.9041C3.5 20.0872 5.45834 22 8.59625 22H16.4036C19.5453 22 21.4999 20.1193 21.4999 16.9744V8.48579C21.509 5.51886 19.768 3.68119 16.9249 3.48626V2.69767L16.9186 2.603ZM15.5403 4.86437V5.75887L15.5466 5.85354C15.5925 6.19407 15.8821 6.45654 16.2326 6.45654C16.615 6.45654 16.9249 6.14418 16.9249 5.75887V4.88499C18.9935 5.0571 20.122 6.30274 20.1153 8.48365V8.88768H4.88461V8.48579C4.88461 6.30626 6.01925 5.05798 8.08353 4.88513V5.75887L8.08985 5.85354C8.13569 6.19407 8.42535 6.45654 8.77583 6.45654C9.15818 6.45654 9.46814 6.14418 9.46814 5.75887V4.86437H15.5403ZM4.88461 10.283V16.9041C4.88461 19.3067 6.21352 20.6047 8.59625 20.6047H16.4036C18.7946 20.6047 20.1153 19.3338 20.1153 16.9744L20.1153 10.283H4.88461ZM17.3012 13.2183C17.3012 12.833 16.9912 12.5206 16.6089 12.5206L16.5064 12.527C16.1685 12.5732 15.908 12.8651 15.908 13.2183C15.908 13.6036 16.218 13.916 16.6089 13.916L16.7028 13.9096C17.0407 13.8634 17.3012 13.5715 17.3012 13.2183ZM12.5128 12.5206C12.8951 12.5206 13.2051 12.833 13.2051 13.2183C13.2051 13.5715 12.9446 13.8634 12.6067 13.9096L12.5128 13.916C12.1219 13.916 11.8119 13.6036 11.8119 13.2183C11.8119 12.8651 12.0724 12.5732 12.4103 12.527L12.5128 12.5206ZM9.10043 13.2183C9.10043 12.833 8.79047 12.5206 8.40812 12.5206L8.30563 12.527C7.96772 12.5732 7.70727 12.8651 7.70727 13.2183C7.70727 13.6036 8.01722 13.916 8.39957 13.916L8.50207 13.9096C8.83998 13.8634 9.10043 13.5715 9.10043 13.2183ZM16.6089 16.136C16.9912 16.136 17.3012 16.4484 17.3012 16.8337C17.3012 17.1869 17.0407 17.4788 16.7028 17.525L16.6089 17.5314C16.218 17.5314 15.908 17.219 15.908 16.8337C15.908 16.4805 16.1685 16.1886 16.5064 16.1424L16.6089 16.136ZM13.2051 16.8337C13.2051 16.4484 12.8951 16.136 12.5128 16.136L12.4103 16.1424C12.0724 16.1886 11.8119 16.4805 11.8119 16.8337C11.8119 17.219 12.1219 17.5314 12.5128 17.5314L12.6067 17.525C12.9446 17.4788 13.2051 17.1869 13.2051 16.8337ZM8.40812 16.136C8.79047 16.136 9.10043 16.4484 9.10043 16.8337C9.10043 17.1869 8.83998 17.4788 8.50207 17.525L8.39957 17.5314C8.01722 17.5314 7.70727 17.219 7.70727 16.8337C7.70727 16.4805 7.96772 16.1886 8.30563 16.1424L8.40812 16.136Z" fill="#4937BE"/>
</svg>
