<svg width="30" height="24" viewBox="0 0 30 24" fill="none" xmlns="http://www.w3.org/2000/svg">
<path fill-rule="evenodd" clip-rule="evenodd" d="M14.917 0.583328C11.5097 0.583328 8.77272 3.32027 8.77272 6.72766C8.77272 10.1361 11.5094 12.8732 14.917 12.8732C18.3247 12.8732 21.0614 10.1361 21.0614 6.72766C21.0614 3.32027 18.3244 0.583328 14.917 0.583328ZM14.917 2.58333C17.2199 2.58333 19.0614 4.42483 19.0614 6.72766C19.0614 9.03156 17.22 10.8732 14.917 10.8732C12.6141 10.8732 10.7727 9.03156 10.7727 6.72766C10.7727 4.42483 12.6142 2.58333 14.917 2.58333ZM7.38669 1.83917C7.93898 1.83917 8.38669 2.28688 8.38669 2.83917C8.38669 3.39145 7.93898 3.83917 7.38669 3.83917C5.8022 3.83917 4.51714 5.12367 4.51714 6.7075C4.51714 8.29133 5.8022 9.57583 7.38669 9.57583C7.93898 9.57583 8.38669 10.0236 8.38669 10.5758C8.38669 11.1281 7.93898 11.5758 7.38669 11.5758C4.69783 11.5758 2.51714 9.3961 2.51714 6.7075C2.51714 4.01891 4.69783 1.83917 7.38669 1.83917ZM27.3294 6.7075C27.3294 4.01891 25.1487 1.83917 22.4599 1.83917C21.9076 1.83917 21.4599 2.28688 21.4599 2.83917C21.4599 3.39145 21.9076 3.83917 22.4599 3.83917C24.0444 3.83917 25.3294 5.12367 25.3294 6.7075C25.3294 8.29133 24.0444 9.57583 22.4599 9.57583C21.9076 9.57583 21.4599 10.0236 21.4599 10.5758C21.4599 11.1281 21.9076 11.5758 22.4599 11.5758C25.1487 11.5758 27.3294 9.3961 27.3294 6.7075ZM26.3278 14.0733C25.6876 13.9288 25.0033 13.83 24.3076 13.782C23.7566 13.744 23.2792 14.1599 23.2412 14.7109C23.2032 15.2618 23.619 15.7393 24.17 15.7773C24.7654 15.8183 25.3488 15.9026 25.9161 16.0303C26.7984 16.2034 27.3736 16.4903 27.5163 16.7895C27.6237 17.0153 27.6237 17.2808 27.5153 17.5093C27.3744 17.8055 26.804 18.091 25.9343 18.2698C25.3933 18.3811 25.045 18.9098 25.1562 19.4507C25.2674 19.9917 25.7962 20.3401 26.3371 20.2288C27.7747 19.9332 28.8278 19.4061 29.3219 18.3674C29.6882 17.5952 29.6882 16.6996 29.3219 15.9294C28.8244 14.8867 27.7532 14.3523 26.3278 14.0733ZM6.60538 14.7109C6.56738 14.1599 6.08992 13.744 5.53895 13.782C4.84323 13.83 4.159 13.9288 3.4913 14.0791L3.21604 14.1373C1.95255 14.426 0.988611 14.9565 0.525928 15.9292C0.158122 16.6988 0.158122 17.596 0.526315 18.3682C1.01822 19.4058 2.07125 19.9331 3.50944 20.2288C4.05041 20.3401 4.57913 19.9917 4.69037 19.4507C4.80161 18.9098 4.45325 18.3811 3.91228 18.2698C3.04283 18.091 2.473 17.8057 2.33257 17.5095C2.22315 17.28 2.22315 17.0161 2.33122 16.79C2.47387 16.4901 3.04848 16.2033 3.90299 16.036L4.34729 15.9451C4.79021 15.8632 5.23003 15.8081 5.67655 15.7773C6.22753 15.7393 6.64338 15.2618 6.60538 14.7109ZM5.88949 18.9127C5.88949 15.7314 9.18008 14.6127 14.9171 14.6127L15.3235 14.6146C20.8207 14.6662 23.9446 15.7876 23.9446 18.8895C23.9446 21.9184 20.9585 23.0782 15.7197 23.1818L14.9171 23.1895C9.16693 23.1895 5.88949 22.0904 5.88949 18.9127ZM21.9446 18.8895C21.9446 17.4088 19.5706 16.6127 14.917 16.6127C10.2681 16.6127 7.88949 17.4214 7.88949 18.9127C7.88949 20.3936 10.2628 21.1895 14.917 21.1895C19.5646 21.1895 21.9446 20.3801 21.9446 18.8895Z" fill="#00BA88"/>
</svg>
