<svg width="18" height="20" viewBox="0 0 18 20" fill="none" xmlns="http://www.w3.org/2000/svg">
<path fill-rule="evenodd" clip-rule="evenodd" d="M11.6062 0.0118831C11.5632 0.00419514 11.5188 0.000183105 11.4735 0.000183105C11.4283 0.000183105 11.3839 0.00419514 11.3409 0.0118831H5.08424C2.59695 0.0118831 0.500244 2.02971 0.500244 4.49088V15.3399C0.500244 17.9221 2.48569 19.8649 5.08424 19.8649H13.0722C15.5408 19.8649 17.5522 17.8199 17.5522 15.3399V6.03788C17.5522 5.84424 17.4773 5.65811 17.3432 5.51843L12.2772 0.242429C12.1358 0.0951401 11.9404 0.0118831 11.7362 0.0118831H11.6062ZM10.7235 1.51108L5.08424 1.51188C3.41278 1.51188 2.00024 2.87128 2.00024 4.49088V15.3399C2.00024 17.0863 3.30691 18.3649 5.08424 18.3649H13.0722C14.7068 18.3649 16.0522 16.997 16.0522 15.3399L16.052 6.98326L15.1754 6.98625C14.8419 6.98585 14.4626 6.98514 14.041 6.98418C12.2706 6.98044 10.8263 5.59366 10.7288 3.84759L10.7235 3.65918V1.51108ZM15.231 5.48402L14.0443 5.48419C13.0379 5.48206 12.2235 4.66575 12.2235 3.65918V2.35203L15.231 5.48402ZM11.2943 10.1642C11.7086 10.1642 12.0443 10.5 12.0443 10.9142C12.0443 11.2939 11.7622 11.6077 11.3961 11.6573L11.2943 11.6642H9.59364V13.3654C9.59364 13.7796 9.25786 14.1154 8.84364 14.1154C8.46395 14.1154 8.15015 13.8332 8.10049 13.4672L8.09364 13.3654V11.6642H6.39334C5.97913 11.6642 5.64334 11.3284 5.64334 10.9142C5.64334 10.5345 5.9255 10.2207 6.29157 10.171L6.39334 10.1642H8.09364V8.46438C8.09364 8.05017 8.42943 7.71438 8.84364 7.71438C9.22334 7.71438 9.53714 7.99654 9.5868 8.36261L9.59364 8.46438V10.1642H11.2943Z" fill="#4E4B66"/>
</svg>
