<svg width="25" height="24" viewBox="0 0 25 24" fill="none" xmlns="http://www.w3.org/2000/svg">
<path fill-rule="evenodd" clip-rule="evenodd" d="M3.77213 1H21.2279C22.4885 1 23.5 2.04352 23.5 3.32018V5.02151C23.5 5.6415 23.2586 6.23568 22.8281 6.66977L15.3846 14.2168L15.3852 19.9314C15.3852 20.1915 15.2538 20.4311 15.0407 20.5718L14.9446 20.6257L10.0572 22.926C9.54819 23.1656 8.96293 22.7942 8.96293 22.2317L8.9626 14.1994L2.10591 6.63882C1.75898 6.25706 1.55007 5.76916 1.50793 5.25451L1.5 5.06041V3.32018C1.5 2.04352 2.5115 1 3.77213 1ZM21.2279 2.53482H3.77213C3.37009 2.53482 3.03488 2.88064 3.03488 3.32018V5.06041C3.03488 5.26575 3.10958 5.46108 3.24234 5.60717L10.2988 13.3875C10.4269 13.5287 10.4978 13.7125 10.4978 13.9031L10.4975 21.0212L13.8497 19.4444L13.8503 13.9031C13.8503 13.7417 13.9011 13.5856 13.9939 13.4561L14.0713 13.3643L21.7367 5.59057C21.8818 5.44424 21.9651 5.23924 21.9651 5.02151V3.32018C21.9651 2.88064 21.6299 2.53482 21.2279 2.53482Z" fill="#4937BE"/>
</svg>
