<svg width="28" height="28" viewBox="0 0 28 28" fill="none" xmlns="http://www.w3.org/2000/svg">
<path fill-rule="evenodd" clip-rule="evenodd" d="M0.666504 14.0003C0.666504 6.63733 6.63689 0.666946 13.9998 0.666946C21.3637 0.666946 27.3332 6.63688 27.3332 14.0003C27.3332 21.3637 21.3637 27.3336 13.9998 27.3336C6.63689 27.3336 0.666504 21.3632 0.666504 14.0003ZM25.3332 14.0003C25.3332 7.74142 20.2591 2.66695 13.9998 2.66695C7.74146 2.66695 2.6665 7.7419 2.6665 14.0003C2.6665 20.2587 7.74146 25.3336 13.9998 25.3336C20.2591 25.3336 25.3332 20.2591 25.3332 14.0003ZM13.9933 7.93908C14.4996 7.93908 14.918 8.31529 14.9842 8.80339L14.9933 8.93908V14.8311C14.9933 15.3834 14.5456 15.8311 13.9933 15.8311C13.487 15.8311 13.0686 15.4549 13.0024 14.9668L12.9933 14.8311V8.93908C12.9933 8.3868 13.441 7.93908 13.9933 7.93908ZM15.0066 19.0615C15.0066 18.5092 14.5589 18.0615 14.0066 18.0615L13.8576 18.0706C13.3695 18.1368 12.9933 18.5552 12.9933 19.0615C12.9933 19.6138 13.441 20.0615 13.9933 20.0615L14.1423 20.0524C14.6304 19.9861 15.0066 19.5677 15.0066 19.0615Z" fill="#FA675C"/>
</svg>
