<svg width="38" height="32" viewBox="0 0 38 32" fill="none" xmlns="http://www.w3.org/2000/svg">
<path d="M11.9899 21.2809C10.486 21.9639 9.21618 21.4357 8.18052 19.7054L0.930896 7.40215C0.0753511 5.9997 -0.194821 4.67921 0.138391 3.42248C0.453592 2.13842 1.33615 1.1731 2.78608 0.517411C4.26302 -0.147384 5.55985 -0.174704 6.68556 0.453664C7.80228 1.04561 8.58577 2.13842 9.05407 3.7139L13.3678 17.3468C13.9532 19.2956 13.4939 20.607 11.9899 21.2809Z" fill="#222222"/>
<path d="M27.4168 20.2063C26.7864 20.9348 25.9849 20.9713 25.0122 20.3065L18.2039 15.5618C17.4114 15.0336 16.9521 14.3962 16.826 13.6494C16.6819 12.8935 16.9161 12.165 17.5285 11.4547C18.1499 10.7352 18.8343 10.4074 19.5818 10.462C20.3202 10.5076 20.9957 10.89 21.6261 11.6095L27.2006 17.7839C27.9841 18.6672 28.0562 19.4778 27.4168 20.2063Z" fill="#222222"/>
<path d="M11.0353 20.2063C11.6657 20.9348 12.4672 20.9713 13.4399 20.3065L20.2482 15.5618C21.0407 15.0336 21.5 14.3962 21.6261 13.6494C21.7702 12.8935 21.527 12.165 20.9236 11.4547C20.3022 10.7352 19.6178 10.4074 18.8703 10.462C18.1319 10.5076 17.4564 10.89 16.826 11.6095L11.2515 17.7839C10.477 18.6672 10.4049 19.4778 11.0353 20.2063Z" fill="#222222"/>
<path d="M25.2104 21.3082C26.7143 21.9912 27.9841 21.463 29.0288 19.7327L36.2784 7.42946C37.134 6.02701 37.4041 4.70653 37.0709 3.44979C36.7557 2.16573 35.8732 1.20041 34.4232 0.544725C32.9463 -0.120071 31.6495 -0.147391 30.5238 0.480977C29.407 1.07292 28.6235 2.16573 28.1552 3.74121L23.8415 17.3741C23.2471 19.3138 23.7064 20.6252 25.2104 21.3082ZM20.6895 31.4987C21.9683 32.0815 23.1571 32.1544 24.2648 31.7264C25.3545 31.2619 26.174 30.4059 26.7233 29.1765C27.2547 27.9744 27.3267 26.8178 26.9305 25.7068C26.5072 24.5866 25.6607 23.7397 24.3818 23.1569C23.076 22.5649 21.8873 22.4921 20.8066 22.9292C19.7259 23.3663 18.9154 24.186 18.384 25.3972C17.8347 26.6266 17.7536 27.8105 18.1319 28.9488C18.5371 30.0507 19.3837 30.9068 20.6895 31.4987Z" fill="#F7F7FC"/>
</svg>
