<svg width="25" height="24" viewBox="0 0 25 24" fill="none" xmlns="http://www.w3.org/2000/svg">
<path fill-rule="evenodd" clip-rule="evenodd" d="M12.2454 2H12.1741C8.80494 2 5.71583 4.44456 5.41614 7.68096C5.39615 7.91248 5.38253 8.14906 5.37373 8.40391L5.36141 8.99974L5.35898 9.53395L5.37402 9.47306C5.23498 10.151 4.91454 10.7799 4.44582 11.2938L4.37865 11.3802C3.97733 11.9898 3.74673 12.6955 3.71104 13.4242L3.71019 13.6624C3.6897 14.6208 4.01811 15.5691 4.63592 16.3223C5.47373 17.2069 6.55825 17.7346 7.72225 17.8466C10.6993 18.1699 13.7113 18.1699 16.6966 17.8457C17.8527 17.7393 18.9404 17.2101 19.7431 16.3582C20.3492 15.6331 20.68 14.763 20.7083 13.862L20.7093 13.4587C20.6761 12.698 20.4441 11.9917 20.0379 11.3847L19.9762 11.3055L19.8255 11.1282C19.4869 10.7052 19.2396 10.218 19.0989 9.69688L19.0543 9.50977L19.0451 9.31353C19.0423 9.22527 19.0409 9.1274 19.0405 9.00516L19.0404 8.33206C19.0381 8.07458 19.0304 7.89148 19.0127 7.68536C18.7027 4.44285 15.6127 2 12.2454 2ZM12.1741 3.39535H12.2454C14.9429 3.39535 17.4037 5.34075 17.64 7.81326C17.654 7.97558 17.6602 8.13044 17.6621 8.3605L17.6648 9.26514C17.6678 9.40982 17.6735 9.53013 17.6832 9.66551L17.6961 9.75818L17.761 10.034C17.9533 10.7635 18.2986 11.4441 18.774 12.0309L18.9119 12.1926L18.8966 12.1672C19.1603 12.5613 19.3105 13.0186 19.3315 13.4901L19.3308 13.6536C19.3468 14.3097 19.1292 14.933 18.7177 15.4267C18.1738 16.002 17.3964 16.3802 16.5606 16.4572C13.662 16.7719 10.7486 16.7719 7.86097 16.4583C7.01611 16.377 6.2381 15.9985 5.66298 15.3931C5.29015 14.9356 5.07497 14.3142 5.08848 13.6774L5.08864 13.4587L5.10611 13.2682C5.14819 12.9495 5.25468 12.6265 5.41974 12.3291L5.50344 12.1905C6.11708 11.5004 6.53821 10.6611 6.7237 9.75667L6.73808 9.61486L6.74461 8.69559L6.76066 8.2292C6.76795 8.08207 6.77727 7.94228 6.78896 7.80678C7.01732 5.34087 9.4758 3.39535 12.1741 3.39535ZM5.50344 12.1905C5.4886 12.2072 5.47365 12.2238 5.45858 12.2404L5.50785 12.1833L5.50344 12.1905ZM14.8172 19.6906C14.5207 19.4491 14.0868 19.4967 13.8482 19.7969C13.7448 19.927 13.6251 20.0437 13.4918 20.1443C13.04 20.4986 12.4762 20.6564 11.9157 20.5896C11.356 20.523 10.8472 20.2381 10.502 19.7995C10.2648 19.4981 9.83118 19.4484 9.53346 19.6885C9.23575 19.9286 9.18669 20.3676 9.42388 20.6689C9.99629 21.3962 10.8351 21.8659 11.7546 21.9754C12.6733 22.0849 13.5984 21.826 14.326 21.255C14.542 21.0922 14.7458 20.8935 14.9222 20.6715C15.1608 20.3713 15.1138 19.9321 14.8172 19.6906Z" fill="#F7F7FC"/>
</svg>
