<svg width="25" height="24" viewBox="0 0 25 24" fill="none" xmlns="http://www.w3.org/2000/svg">
<path fill-rule="evenodd" clip-rule="evenodd" d="M11.2136 2C8.27956 2 5.90106 4.38864 5.90106 7.33517C5.90106 10.2817 8.27956 12.6703 11.2136 12.6703C14.1476 12.6703 16.5261 10.2817 16.5261 7.33517C16.5261 4.38864 14.1476 2 11.2136 2ZM11.2136 3.44767C13.3515 3.44767 15.0846 5.18816 15.0846 7.33517C15.0846 9.48218 13.3515 11.2227 11.2136 11.2227C9.07569 11.2227 7.34258 9.48218 7.34258 7.33517C7.34258 5.18816 9.07569 3.44767 11.2136 3.44767ZM9.03934 14.8209C8.26162 14.8749 7.4755 14.9859 6.70009 15.1521C5.20347 15.4604 4.00614 16.0763 3.49653 17.0999C3.30432 17.5002 3.20768 17.9288 3.20931 18.3627C3.20873 18.7935 3.30459 19.2227 3.48991 19.6153C3.97923 20.6271 5.03709 21.1997 6.46553 21.5171L6.72142 21.5705C7.47577 21.7407 8.26213 21.8553 9.05375 21.909C9.12118 21.9288 9.28187 21.9472 9.45725 21.9561L9.60151 21.9615C9.67568 21.9633 9.75987 21.9637 9.8853 21.9637C11.0231 22.0263 12.2027 22.0081 13.3768 21.9081C14.0025 21.8653 14.6324 21.7835 15.257 21.6636L15.7244 21.5666C17.2669 21.2623 18.4219 20.6836 18.9279 19.6164C19.303 18.8241 19.303 17.9047 18.9281 17.1127C18.4233 16.0483 17.283 15.4744 15.7127 15.1509C15.0966 15.0194 14.4705 14.922 13.84 14.8599L13.379 14.8209C11.9352 14.6935 10.4831 14.6935 9.03934 14.8209ZM13.2529 16.263L13.2655 16.264C13.9892 16.3149 14.7084 16.4165 15.418 16.568C16.5844 16.8083 17.376 17.2067 17.6264 17.7348C17.815 18.133 17.815 18.5958 17.6262 18.9944C17.3922 19.4879 16.6813 19.8691 15.6538 20.1021L15.4288 20.1498C14.7053 20.3112 13.9884 20.4152 13.2668 20.4647C12.1472 20.5599 11.0342 20.5771 9.92406 20.5171L9.53045 20.5103C9.42119 20.5048 9.3291 20.4942 9.24376 20.4771C8.56801 20.4261 7.95995 20.3454 7.36956 20.2283L7.01704 20.1537C5.847 19.9244 5.04844 19.5243 4.78953 18.989C4.69893 18.797 4.65054 18.5803 4.65083 18.3609C4.65002 18.1428 4.69777 17.931 4.79047 17.7379C5.04222 17.2324 5.88848 16.7971 6.99534 16.569C7.71002 16.4159 8.42891 16.3144 9.15223 16.264C10.5253 16.143 11.893 16.143 13.2529 16.263Z" fill="#F7F7FC"/>
<path d="M21.5063 11.2965C21.8945 11.2965 22.2093 11.6112 22.2093 11.9995C22.2093 12.3554 21.9448 12.6495 21.6017 12.6961L21.5063 12.7025H16.9123C16.524 12.7025 16.2093 12.3878 16.2093 11.9995C16.2093 11.6436 16.4738 11.3494 16.8169 11.3029L16.9123 11.2965H21.5063Z" fill="#F7F7FC"/>
<path d="M19.2091 9C19.565 9 19.8592 9.26448 19.9057 9.60762L19.9121 9.70302V14.297C19.9121 14.6852 19.5974 15 19.2091 15C18.8532 15 18.5591 14.7355 18.5125 14.3924L18.5061 14.297V9.70302C18.5061 9.31475 18.8209 9 19.2091 9Z" fill="#F7F7FC"/>
</svg>
