<svg width="25" height="24" viewBox="0 0 25 24" fill="none" xmlns="http://www.w3.org/2000/svg">
<path fill-rule="evenodd" clip-rule="evenodd" d="M12.8254 2H11.5904C10.8948 2 10.2279 2.27155 9.73725 2.75457C9.30236 3.1827 9.03633 3.74716 8.98504 4.34781L8.97653 4.54181C8.96704 5.17352 8.45671 5.66634 7.8303 5.66628C7.68824 5.6648 7.5407 5.63238 7.40488 5.5713L7.27164 5.50171C6.04084 4.81017 4.44057 5.23376 3.71847 6.46166L3.06918 7.50695C2.37878 8.68048 2.7193 10.1548 3.83378 10.9141L3.98877 11.0115C4.37078 11.2284 4.58916 11.599 4.58916 12C4.58916 12.3688 4.4042 12.7137 4.09574 12.9228L3.99044 12.9875C2.8358 13.6412 2.38086 15.0841 2.96126 16.2844L3.04608 16.4442L3.68341 17.5224C4.01468 18.1083 4.58235 18.5497 5.25374 18.7366C5.84882 18.9023 6.48389 18.8565 7.04691 18.6084L7.22494 18.5213C7.52458 18.3516 7.83413 18.3109 8.12467 18.3871C8.4152 18.4633 8.66264 18.65 8.81199 18.9057C8.89433 19.0418 8.94266 19.1822 8.95992 19.3277L8.96841 19.4753C8.96694 20.8493 10.1415 22 11.5904 22H12.8257C14.1938 22 15.3293 20.9703 15.4403 19.6414L15.4484 19.4698C15.4476 19.1379 15.5675 18.8524 15.782 18.6422C15.9965 18.432 16.2879 18.3146 16.5913 18.316C16.7307 18.3199 16.8839 18.3541 17.0259 18.4163L17.162 18.485C18.3103 19.1344 19.8151 18.8008 20.5901 17.7089L20.6896 17.557L21.3492 16.4804C21.7043 15.8833 21.8005 15.1817 21.6212 14.523C21.4623 13.9391 21.098 13.4297 20.5936 13.0841L20.4267 12.9793C20.1365 12.8149 19.9452 12.5708 19.8673 12.2844C19.7893 11.998 19.8311 11.6929 19.9834 11.4368C20.0678 11.2926 20.1799 11.1726 20.3144 11.0807L20.5717 10.9223C21.6136 10.2293 22.0038 8.86519 21.4554 7.71842L21.3985 7.60674C21.3862 7.57762 21.372 7.54922 21.3558 7.52174L20.7426 6.47928C20.0604 5.31918 18.5852 4.86897 17.3553 5.4355L17.1914 5.51839C16.8975 5.68688 16.5871 5.72947 16.295 5.65514C16.0028 5.58081 15.7528 5.39567 15.6001 5.14055C15.5217 5.01116 15.4734 4.87079 15.4561 4.72535L15.4476 4.57766C15.4692 3.94968 15.2018 3.27681 14.7076 2.77871C14.2134 2.28061 13.5344 1.99971 12.8254 2ZM11.5904 3.44774H12.8257C13.1356 3.44761 13.4322 3.57029 13.648 3.78783C13.8638 4.00537 13.9806 4.29923 13.9717 4.60249L13.9849 4.85454C14.0295 5.23984 14.145 5.57504 14.3274 5.87616C14.6766 6.45965 15.2516 6.88546 15.9236 7.05641C16.5956 7.22736 17.3094 7.12941 17.9076 6.78415L18.0108 6.73265L18.1218 6.6891C18.6101 6.52853 19.1857 6.73175 19.4623 7.20208L20.0471 8.19726L20.0598 8.22529L20.1305 8.35884C20.3671 8.85504 20.1694 9.4827 19.6573 9.77613L19.4966 9.87532C19.1557 10.1073 18.8942 10.3872 18.7039 10.7126C18.3564 11.2971 18.2602 11.9987 18.4395 12.6574C18.6025 13.2563 18.9809 13.7748 19.5015 14.1195L19.7738 14.2882C19.9659 14.4207 20.1243 14.6422 20.1934 14.896C20.2714 15.1824 20.2296 15.4875 20.0772 15.7436L19.4329 16.7957L19.3604 16.9067C19.0622 17.3258 18.474 17.4814 17.978 17.2682L17.6621 17.11C17.3097 16.9547 16.9649 16.8778 16.6146 16.8686C15.9007 16.865 15.2305 17.1351 14.7371 17.6185C14.2438 18.1019 13.9681 18.7585 13.9714 19.4421L13.9658 19.5511C13.9192 20.1023 13.423 20.5523 12.8257 20.5523H11.5904C10.9998 20.5523 10.5135 20.1145 10.4513 19.552L10.4312 19.1985C10.3865 18.8132 10.2711 18.478 10.0887 18.1768C9.74957 17.5959 9.1779 17.1645 8.50666 16.9886C7.83543 16.8126 7.12024 16.9066 6.52009 17.2497L6.41137 17.3018C6.19498 17.3964 5.9176 17.4164 5.65771 17.344C5.36449 17.2624 5.11657 17.0696 4.96881 16.8084L4.33956 15.7449L4.28327 15.6383C4.04491 15.144 4.24283 14.5163 4.75568 14.2256L4.91148 14.1296C5.64342 13.634 6.06683 12.8446 6.06683 12C6.06683 11.1429 5.63125 10.3467 4.91324 9.871L4.65253 9.70925C4.19185 9.39466 4.04306 8.75044 4.34057 8.24455L4.98986 7.19925C5.31419 6.64815 6.01309 6.46315 6.56119 6.77085L6.75356 6.87026C7.11284 7.03293 7.46517 7.11034 7.82255 7.11398C9.20898 7.11416 10.3427 6.07087 10.4461 4.7415L10.4596 4.43661C10.4799 4.20741 10.5955 3.96196 10.7846 3.77582C10.998 3.56581 11.2879 3.44774 11.5904 3.44774ZM12.2125 8.73182C10.3702 8.73182 8.87677 10.195 8.87677 12C8.87677 13.805 10.3702 15.2682 12.2125 15.2682C14.0548 15.2682 15.5483 13.805 15.5483 12C15.5483 10.195 14.0548 8.73182 12.2125 8.73182ZM12.2125 10.1796C13.2387 10.1796 14.0706 10.9946 14.0706 12C14.0706 13.0054 13.2387 13.8204 12.2125 13.8204C11.1863 13.8204 10.3544 13.0054 10.3544 12C10.3544 10.9946 11.1863 10.1796 12.2125 10.1796Z" fill="#F7F7FC"/>
</svg>
