<svg width="25" height="24" viewBox="0 0 25 24" fill="none" xmlns="http://www.w3.org/2000/svg">
<path fill-rule="evenodd" clip-rule="evenodd" d="M7.85854 3.23021C7.56443 3.01114 7.14618 3.03548 6.87966 3.30323L2.80188 7.3999L2.72946 7.48419C2.51228 7.7783 2.53745 8.19491 2.80433 8.46056L2.88862 8.53298C3.18273 8.75016 3.59934 8.72499 3.86499 8.45811L6.6611 5.64851V17.4507L6.66795 17.5524C6.71761 17.9185 7.03141 18.2007 7.4111 18.2007C7.82532 18.2007 8.1611 17.8649 8.1611 17.4507V5.64864L10.9574 8.45811L11.0414 8.53092C11.3345 8.74945 11.7512 8.72621 12.0181 8.46056C12.3117 8.16834 12.3128 7.69347 12.0205 7.3999L7.94277 3.30323L7.93757 3.29873C7.91468 3.27617 7.89035 3.25507 7.86473 3.23558L7.85854 3.23021ZM18.0827 6.44468C18.033 6.0786 17.7192 5.79645 17.3395 5.79645C16.9253 5.79645 16.5895 6.13223 16.5895 6.54645V18.3481L13.7932 15.539L13.7093 15.4662C13.4162 15.2477 12.9994 15.2709 12.7326 15.5366C12.439 15.8288 12.4379 16.3036 12.7301 16.5972L16.8079 20.6939L16.8131 20.6984C16.836 20.721 16.8603 20.7421 16.8859 20.7615L16.8921 20.7669C17.1862 20.986 17.6045 20.9616 17.871 20.6939L21.9488 16.5972L22.0212 16.5129C22.2384 16.2188 22.2132 15.8022 21.9463 15.5366C21.6527 15.2443 21.1779 15.2454 20.8857 15.539L18.0895 18.3472V6.54645L18.0827 6.44468Z" fill="#4937BE"/>
</svg>
