<svg width="28" height="27" viewBox="0 0 28 27" fill="none" xmlns="http://www.w3.org/2000/svg">
<path fill-rule="evenodd" clip-rule="evenodd" d="M19.779 0.166946H8.22033C3.69023 0.166946 0.666992 3.41041 0.666992 8.05495V18.9456C0.666992 23.5945 3.68215 26.8336 8.22033 26.8336H19.7777C24.3171 26.8336 27.3337 23.5945 27.3337 18.9456V8.05495C27.3337 3.40628 24.3174 0.166946 19.779 0.166946ZM8.22033 2.16695H19.779C23.1797 2.16695 25.3337 4.48023 25.3337 8.05495V18.9456C25.3337 22.5205 23.1795 24.8336 19.7777 24.8336H8.22033C4.82001 24.8336 2.66699 22.5207 2.66699 18.9456V8.05495C2.66699 4.48478 4.82744 2.16695 8.22033 2.16695ZM19.4534 9.62916C19.0629 9.23863 18.4297 9.23863 18.0392 9.62916L12.4171 15.2493L9.95995 12.793L9.84777 12.6962C9.45623 12.4058 8.90068 12.4382 8.54574 12.7933C8.15529 13.1839 8.15543 13.8171 8.54603 14.2075L11.7114 17.3715L11.8235 17.4683C12.215 17.7587 12.7705 17.7263 13.1254 17.3714L19.4534 11.0434L19.5503 10.9312C19.8407 10.5397 19.8085 9.98418 19.4534 9.62916Z" fill="#A0A3BD"/>
</svg>
