<svg width="20" height="20" viewBox="0 0 20 20" fill="none" xmlns="http://www.w3.org/2000/svg">
<path fill-rule="evenodd" clip-rule="evenodd" d="M14.3345 0.000183105H5.66549C2.26791 0.000183105 0.000488281 2.43278 0.000488281 5.91618V14.0842C0.000488281 17.5709 2.26186 20.0002 5.66549 20.0002H14.3335C17.7381 20.0002 20.0005 17.5709 20.0005 14.0842V5.91618C20.0005 2.42969 17.7383 0.000183105 14.3345 0.000183105ZM5.66549 1.50018H14.3345C16.885 1.50018 18.5005 3.23515 18.5005 5.91618V14.0842C18.5005 16.7653 16.8849 18.5002 14.3335 18.5002H5.66549C3.11525 18.5002 1.50049 16.7655 1.50049 14.0842V5.91618C1.50049 3.23856 3.12083 1.50018 5.66549 1.50018ZM14.0903 7.09685C13.7974 6.80396 13.3226 6.80396 13.0297 7.09685L8.81309 11.312L6.97021 9.46974L6.88607 9.39714C6.59242 9.17935 6.17576 9.20364 5.90955 9.46996C5.61671 9.76292 5.61682 10.2378 5.90977 10.5306L8.28377 12.9036L8.36789 12.9762C8.6615 13.194 9.07809 13.1697 9.34432 12.9035L14.0903 8.15751L14.1629 8.07339C14.3808 7.77978 14.3566 7.36312 14.0903 7.09685Z" fill="#7061D1"/>
</svg>
