<svg width="28" height="27" viewBox="0 0 28 27" fill="none" xmlns="http://www.w3.org/2000/svg">
<path fill-rule="evenodd" clip-rule="evenodd" d="M8.22057 0.166992H19.7792C24.3176 0.166992 27.3339 3.40633 27.3339 8.05499V18.9457C27.3339 23.5945 24.3174 26.8337 19.7779 26.8337H8.22057C3.6824 26.8337 0.667236 23.5946 0.667236 18.9457V8.05499C0.667236 3.41045 3.69047 0.166992 8.22057 0.166992ZM19.7792 2.16699H8.22057C4.82769 2.16699 2.66724 4.48482 2.66724 8.05499V18.9457C2.66724 22.5208 4.82025 24.8337 8.22057 24.8337H19.7779C23.1797 24.8337 25.3339 22.5205 25.3339 18.9457V8.05499C25.3339 4.48028 23.1799 2.16699 19.7792 2.16699Z" fill="#A0A3BD"/>
</svg>
